<?xml version="1.0" standalone="no"?>
<!DOCTYPE svg PUBLIC "-//W3C//DTD SVG 20010904//EN"
 "http://www.w3.org/TR/2001/REC-SVG-20010904/DTD/svg10.dtd">
<svg version="1.0" xmlns="http://www.w3.org/2000/svg"
 width="578.000000pt" height="341.000000pt" viewBox="0 0 578.000000 341.000000"
 preserveAspectRatio="xMidYMid meet">
<metadata>
Created by potrace 1.16, written by Peter Selinger 2001-2019
</metadata>
<g transform="translate(0.000000,341.000000) scale(0.100000,-0.100000)"
fill="#000000" stroke="none">
<path d="M2185 3247 c-147 -49 -217 -156 -218 -332 0 -175 34 -238 238 -440
92 -90 161 -168 175 -195 32 -61 40 -182 16 -229 -33 -62 -131 -78 -182 -30
-30 28 -44 77 -44 152 l0 57 -106 0 -107 0 5 -97 c9 -165 58 -257 166 -310 52
-26 67 -28 167 -28 93 0 118 4 160 23 131 60 197 199 180 381 -13 156 -54 223
-260 425 -140 138 -155 156 -169 205 -33 112 -11 194 58 220 30 11 44 12 76 2
54 -16 73 -48 79 -135 l6 -71 104 -3 103 -3 -4 98 c-9 213 -104 312 -308 320
-61 2 -109 -2 -135 -10z"/>
<path d="M4921 3245 c-63 -18 -97 -41 -145 -97 -71 -82 -71 -86 -71 -623 0
-437 2 -485 18 -532 24 -69 85 -136 155 -170 51 -24 68 -27 167 -27 135 -1
192 20 260 96 80 89 80 87 80 633 0 438 -2 485 -18 532 -25 71 -93 144 -159
173 -69 30 -208 37 -287 15z m186 -205 c59 -35 58 -29 61 -480 2 -228 0 -434
-3 -458 -13 -88 -99 -136 -173 -98 -68 35 -67 25 -70 486 -4 441 1 501 41 538
39 36 97 41 144 12z"/>
<path d="M400 2525 l0 -727 223 4 c248 5 283 12 355 74 23 19 53 60 69 92 l28
57 0 495 c0 463 -1 498 -19 544 -25 66 -84 128 -149 157 -49 22 -66 24 -279
27 l-228 4 0 -727z m407 499 c47 -29 48 -36 51 -464 2 -223 0 -424 -3 -448 -3
-23 -17 -55 -30 -70 -22 -25 -30 -27 -114 -30 l-91 -4 0 515 0 516 28 4 c45 6
135 -4 159 -19z"/>
<path d="M1240 2525 l0 -725 310 0 310 0 0 104 0 104 -192 2 c-106 0 -195 5
-198 10 -3 5 -5 105 -3 222 l2 213 155 3 156 3 0 99 0 100 -155 0 -155 0 0
190 c0 145 3 190 13 190 6 0 94 1 195 1 l182 0 0 104 0 105 -310 0 -310 0 0
-725z"/>
<path d="M2926 3148 c-9 -57 -43 -267 -76 -468 -32 -201 -77 -477 -100 -613
-22 -137 -40 -253 -40 -258 0 -6 42 -9 103 -7 l102 3 20 135 21 135 131 3
c129 3 131 2 136 -20 3 -13 13 -76 23 -140 l18 -118 106 0 c59 0 109 2 111 5
3 2 -9 91 -27 197 -17 106 -57 351 -88 543 -31 193 -63 386 -71 430 -7 44 -19
116 -25 160 -18 127 1 115 -174 115 l-153 0 -17 -102z m188 -308 c8 -63 29
-211 46 -327 16 -117 30 -219 30 -228 0 -12 -17 -15 -101 -15 l-102 0 6 58
c18 177 91 662 97 646 4 -10 15 -71 24 -134z"/>
<path d="M3600 2525 l0 -725 110 0 110 0 1 233 c1 216 4 365 7 395 2 9 39 12
147 12 l146 0 -3 103 -3 102 -145 3 -145 3 0 187 c0 103 4 193 8 200 6 9 55
12 188 12 l179 0 0 100 0 100 -300 0 -300 0 0 -725z"/>
<path d="M4320 2525 l0 -725 110 0 110 0 0 725 0 725 -110 0 -110 0 0 -725z"/>
<path d="M1037 1564 c-26 -11 -44 -29 -57 -55 -18 -35 -20 -60 -20 -275 0
-274 4 -289 77 -325 52 -25 124 -22 168 7 48 32 59 67 63 217 l4 137 -76 0
-76 0 0 -45 c0 -41 2 -45 25 -45 24 0 25 -2 25 -74 0 -89 -5 -105 -38 -117
-18 -7 -31 -5 -48 6 l-24 15 0 216 c0 129 4 223 10 235 7 13 21 19 45 19 42 0
55 -20 55 -84 l0 -46 51 0 52 0 -5 63 c-6 71 -27 119 -62 143 -36 23 -124 27
-169 8z"/>
<path d="M390 1234 l0 -336 113 3 c126 4 153 15 184 72 16 28 18 61 18 262 0
213 -1 233 -20 265 -32 55 -73 70 -192 70 l-103 0 0 -336z m198 224 c9 -8 12
-65 12 -224 l0 -214 -24 -15 c-14 -9 -37 -15 -53 -13 l-28 3 -3 230 c-1 126 0
236 3 243 6 16 70 9 93 -10z"/>
<path d="M780 1235 l0 -335 50 0 50 0 0 335 0 335 -50 0 -50 0 0 -335z"/>
<path d="M1340 1235 l0 -335 50 0 50 0 0 335 0 335 -50 0 -50 0 0 -335z"/>
<path d="M1498 1525 l-3 -44 55 -3 55 -3 3 -287 2 -288 50 0 50 0 0 290 0 290
55 0 55 0 0 45 0 45 -159 0 -159 0 -4 -45z"/>
<path d="M1906 1543 c-3 -16 -26 -156 -51 -313 -25 -157 -48 -295 -51 -307 -4
-21 -1 -23 45 -23 l49 0 7 65 7 65 63 0 63 0 9 -62 8 -63 53 -3 c50 -3 52 -2
48 20 -3 13 -26 151 -51 308 -25 157 -48 297 -51 313 -5 26 -7 27 -74 27 -67
0 -69 -1 -74 -27z m97 -261 l24 -162 -49 0 c-32 0 -48 4 -48 13 0 7 9 75 20
152 11 77 20 146 20 154 0 44 13 -14 33 -157z"/>
<path d="M2210 1235 l0 -335 140 0 140 0 0 45 0 45 -85 0 -85 0 0 290 0 290
-55 0 -55 0 0 -335z"/>
<path d="M2842 1541 c-126 -44 -208 -158 -188 -264 6 -32 38 -77 55 -77 4 0
11 31 14 69 10 125 72 222 151 236 51 10 80 -9 73 -49 -4 -28 -150 -363 -366
-840 -77 -171 -92 -216 -72 -216 38 0 111 146 294 585 162 388 168 403 174
386 3 -7 0 -130 -7 -274 -23 -491 -17 -569 40 -575 24 -2 29 8 94 175 77 194
250 550 291 598 26 29 26 29 20 5 -114 -471 -127 -543 -129 -711 -1 -144 8
-172 61 -190 19 -6 37 -9 39 -6 3 3 1 28 -4 55 -24 131 54 640 144 939 46 156
46 148 4 148 -31 0 -39 -6 -77 -61 -125 -179 -312 -531 -373 -704 -18 -50 -34
-89 -36 -87 -2 1 4 90 11 197 27 365 18 561 -31 635 -30 46 -96 56 -182 26z"/>
<path d="M3858 1549 c-32 -4 -71 -15 -87 -23 -28 -15 -75 -65 -67 -73 2 -2 23
1 47 6 51 12 269 15 269 3 0 -4 -5 -23 -10 -42 -6 -19 -40 -159 -75 -310 -69
-294 -124 -497 -154 -565 l-19 -42 -78 -6 c-54 -4 -85 -12 -103 -25 -27 -20
-59 -67 -51 -76 3 -2 25 0 50 4 25 5 126 9 226 10 185 0 267 13 293 44 10 12
5 16 -31 20 -64 9 -220 26 -243 26 -18 1 -19 1 -2 11 27 16 75 120 102 222 23
84 123 588 140 699 l7 46 117 4 c95 2 122 7 146 22 l30 20 -30 7 c-47 12 -266
29 -347 28 -40 -1 -99 -5 -130 -10z"/>
<path d="M4914 1541 c-54 -33 -219 -235 -359 -439 l-77 -112 -61 6 c-72 7
-139 -8 -168 -37 -12 -12 -19 -22 -17 -24 2 -1 46 -6 98 -10 52 -4 96 -8 96
-9 1 0 -31 -58 -71 -127 -133 -230 -165 -333 -119 -379 l21 -21 48 108 c42 95
192 402 201 412 1 2 51 -3 110 -10 l106 -12 -6 -51 c-24 -195 -16 -284 31
-330 28 -28 71 -34 117 -16 58 22 143 122 181 213 24 57 1 44 -36 -20 -47 -82
-111 -143 -149 -143 -47 0 -64 49 -57 160 15 201 120 615 195 764 l24 50 -26
23 c-33 28 -42 28 -82 4z m-14 -85 c0 -2 -15 -44 -34 -93 -39 -100 -97 -289
-117 -376 -11 -52 -15 -58 -33 -53 -12 3 -54 13 -93 23 -40 9 -73 20 -73 24 0
13 158 268 206 331 72 96 144 168 144 144z"/>
</g>
</svg>
